<mxfile host="Electron" agent="Mozilla/5.0 (Windows NT 10.0; Win64; x64) AppleWebKit/537.36 (KHTML, like Gecko) draw.io/24.7.17 Chrome/128.0.6613.36 Electron/32.0.1 Safari/537.36" version="24.7.17">
  <diagram name="第 1 页" id="AEc7al1c8aQQ8YdG6KHD">
    <mxGraphModel dx="1396" dy="811" grid="1" gridSize="10" guides="1" tooltips="1" connect="1" arrows="1" fold="1" page="1" pageScale="1" pageWidth="827" pageHeight="1169" math="0" shadow="0">
      <root>
        <mxCell id="0" />
        <mxCell id="1" parent="0" />
        <mxCell id="4XV8Aq0RFqssjxyev_iO-1" value="" style="whiteSpace=wrap;html=1;aspect=fixed;" vertex="1" parent="1">
          <mxGeometry x="120" y="140" width="480" height="480" as="geometry" />
        </mxCell>
        <mxCell id="4XV8Aq0RFqssjxyev_iO-4" value="&lt;font style=&quot;font-size: 24px;&quot;&gt;主页面&lt;/font&gt;" style="text;html=1;align=center;verticalAlign=middle;whiteSpace=wrap;rounded=0;" vertex="1" parent="1">
          <mxGeometry x="504" y="590" width="96" height="30" as="geometry" />
        </mxCell>
        <mxCell id="4XV8Aq0RFqssjxyev_iO-11" value="&lt;font style=&quot;font-size: 24px;&quot;&gt;topPanel&lt;/font&gt;" style="text;html=1;align=center;verticalAlign=middle;whiteSpace=wrap;rounded=0;" vertex="1" parent="1">
          <mxGeometry x="490" y="175" width="96" height="30" as="geometry" />
        </mxCell>
        <mxCell id="4XV8Aq0RFqssjxyev_iO-16" value="&lt;font style=&quot;font-size: 12px;&quot;&gt;userInfoPanel&lt;/font&gt;" style="text;html=1;align=center;verticalAlign=middle;whiteSpace=wrap;rounded=0;" vertex="1" parent="1">
          <mxGeometry x="384.5" y="185" width="96" height="30" as="geometry" />
        </mxCell>
        <mxCell id="4XV8Aq0RFqssjxyev_iO-19" value="" style="group" vertex="1" connectable="0" parent="1">
          <mxGeometry x="120" y="140" width="365" height="100" as="geometry" />
        </mxCell>
        <mxCell id="4XV8Aq0RFqssjxyev_iO-3" value="" style="rounded=0;whiteSpace=wrap;html=1;" vertex="1" parent="4XV8Aq0RFqssjxyev_iO-19">
          <mxGeometry width="365" height="100" as="geometry" />
        </mxCell>
        <mxCell id="4XV8Aq0RFqssjxyev_iO-12" value="" style="rounded=0;whiteSpace=wrap;html=1;" vertex="1" parent="4XV8Aq0RFqssjxyev_iO-19">
          <mxGeometry x="17.5" y="10" width="150" height="80" as="geometry" />
        </mxCell>
        <mxCell id="4XV8Aq0RFqssjxyev_iO-15" value="&lt;font style=&quot;font-size: 18px;&quot;&gt;userInfoPanel&lt;/font&gt;" style="text;html=1;align=center;verticalAlign=middle;whiteSpace=wrap;rounded=0;" vertex="1" parent="4XV8Aq0RFqssjxyev_iO-19">
          <mxGeometry x="44.5" y="35" width="96" height="30" as="geometry" />
        </mxCell>
        <mxCell id="4XV8Aq0RFqssjxyev_iO-17" value="" style="rounded=0;whiteSpace=wrap;html=1;" vertex="1" parent="4XV8Aq0RFqssjxyev_iO-19">
          <mxGeometry x="197.5" y="10" width="145" height="80" as="geometry" />
        </mxCell>
        <mxCell id="4XV8Aq0RFqssjxyev_iO-18" value="&lt;font style=&quot;font-size: 18px;&quot;&gt;balancePanel&lt;/font&gt;" style="text;html=1;align=center;verticalAlign=middle;whiteSpace=wrap;rounded=0;" vertex="1" parent="4XV8Aq0RFqssjxyev_iO-19">
          <mxGeometry x="222.5" y="35" width="96" height="30" as="geometry" />
        </mxCell>
        <mxCell id="4XV8Aq0RFqssjxyev_iO-21" value="" style="rounded=0;whiteSpace=wrap;html=1;" vertex="1" parent="1">
          <mxGeometry x="120" y="280" width="340" height="60" as="geometry" />
        </mxCell>
        <mxCell id="4XV8Aq0RFqssjxyev_iO-31" value="&lt;font style=&quot;font-size: 24px;&quot;&gt;tabbedPane&lt;/font&gt;" style="text;html=1;align=center;verticalAlign=middle;whiteSpace=wrap;rounded=0;" vertex="1" parent="1">
          <mxGeometry x="485" y="295" width="96" height="30" as="geometry" />
        </mxCell>
        <mxCell id="4XV8Aq0RFqssjxyev_iO-33" value="&lt;span style=&quot;font-size: 24px;&quot;&gt;选项卡&lt;/span&gt;" style="text;html=1;align=center;verticalAlign=middle;whiteSpace=wrap;rounded=0;" vertex="1" parent="1">
          <mxGeometry x="288.5" y="295" width="96" height="30" as="geometry" />
        </mxCell>
        <mxCell id="4XV8Aq0RFqssjxyev_iO-39" value="" style="rounded=0;whiteSpace=wrap;html=1;" vertex="1" parent="1">
          <mxGeometry x="120" y="380" width="340" height="180" as="geometry" />
        </mxCell>
        <mxCell id="4XV8Aq0RFqssjxyev_iO-40" value="&lt;font style=&quot;font-size: 24px;&quot;&gt;infoPane&lt;/font&gt;" style="text;html=1;align=center;verticalAlign=middle;whiteSpace=wrap;rounded=0;" vertex="1" parent="1">
          <mxGeometry x="480.5" y="480" width="96" height="30" as="geometry" />
        </mxCell>
        <mxCell id="4XV8Aq0RFqssjxyev_iO-41" value="" style="group" vertex="1" connectable="0" parent="1">
          <mxGeometry x="120" y="400" width="190" height="150" as="geometry" />
        </mxCell>
        <mxCell id="4XV8Aq0RFqssjxyev_iO-32" value="" style="rounded=0;whiteSpace=wrap;html=1;" vertex="1" parent="4XV8Aq0RFqssjxyev_iO-41">
          <mxGeometry width="190" height="150" as="geometry" />
        </mxCell>
        <mxCell id="4XV8Aq0RFqssjxyev_iO-2" value="" style="html=1;verticalLabelPosition=bottom;align=center;labelBackgroundColor=#ffffff;verticalAlign=top;strokeWidth=2;strokeColor=#0080F0;shadow=0;dashed=0;shape=mxgraph.ios7.icons.user;" vertex="1" parent="4XV8Aq0RFqssjxyev_iO-41">
          <mxGeometry x="48.5" y="20" width="93" height="90" as="geometry" />
        </mxCell>
        <mxCell id="4XV8Aq0RFqssjxyev_iO-36" value="&lt;font style=&quot;font-size: 24px;&quot;&gt;photoPanel&lt;/font&gt;" style="text;html=1;align=center;verticalAlign=middle;whiteSpace=wrap;rounded=0;" vertex="1" parent="4XV8Aq0RFqssjxyev_iO-41">
          <mxGeometry x="80" y="120" width="96" height="30" as="geometry" />
        </mxCell>
        <mxCell id="4XV8Aq0RFqssjxyev_iO-43" value="" style="rounded=0;whiteSpace=wrap;html=1;" vertex="1" parent="1">
          <mxGeometry x="320" y="400" width="130" height="150" as="geometry" />
        </mxCell>
        <mxCell id="4XV8Aq0RFqssjxyev_iO-44" value="&lt;font style=&quot;font-size: 24px;&quot;&gt;detailsPane&lt;/font&gt;" style="text;html=1;align=center;verticalAlign=middle;whiteSpace=wrap;rounded=0;" vertex="1" parent="1">
          <mxGeometry x="337" y="460" width="96" height="30" as="geometry" />
        </mxCell>
      </root>
    </mxGraphModel>
  </diagram>
</mxfile>
